<mxfile host="Electron" agent="Mozilla/5.0 (Windows NT 10.0; Win64; x64) AppleWebKit/537.36 (KHTML, like Gecko) draw.io/27.0.9 Chrome/134.0.6998.205 Electron/35.4.0 Safari/537.36" version="27.0.9">
  <diagram name="Page-1" id="y3uzj-wv3QpUt4oF7xZw">
    <mxGraphModel dx="1042" dy="626" grid="1" gridSize="10" guides="1" tooltips="1" connect="1" arrows="1" fold="1" page="1" pageScale="1" pageWidth="1100" pageHeight="850" math="0" shadow="0">
      <root>
        <mxCell id="0" />
        <mxCell id="1" parent="0" />
        <mxCell id="PjssF5-x1hBXrWL6VNME-1" value="ISBN" style="ellipse;whiteSpace=wrap;html=1;align=center;fillColor=#fff2cc;strokeColor=#d6b656;" parent="1" vertex="1">
          <mxGeometry x="100" y="280" width="100" height="40" as="geometry" />
        </mxCell>
        <mxCell id="PjssF5-x1hBXrWL6VNME-2" value="Libro" style="whiteSpace=wrap;html=1;align=center;fillColor=#ffe6cc;strokeColor=#d79b00;" parent="1" vertex="1">
          <mxGeometry x="190" y="360" width="100" height="40" as="geometry" />
        </mxCell>
        <mxCell id="PjssF5-x1hBXrWL6VNME-5" value="&lt;h1 style=&quot;margin-top: 0px;&quot;&gt;Diagrama conceptual - Tarea 3 y 4 - Bases de datos&lt;/h1&gt;&lt;p&gt;&lt;b&gt;Estudiante:&lt;/b&gt; Alejandro Jiménez Rojas - C04079&lt;/p&gt;&lt;p&gt;Este es un diseño previo a la implementación de la base de datos de la tarea. Hecho para representar algunas de las decisiones tomadas y servir de guía a la hora de realizar la implementación real de la base.&lt;/p&gt;" style="text;html=1;whiteSpace=wrap;overflow=hidden;rounded=0;" parent="1" vertex="1">
          <mxGeometry x="20" y="10" width="700" height="140" as="geometry" />
        </mxCell>
        <mxCell id="PjssF5-x1hBXrWL6VNME-6" value="Título" style="ellipse;whiteSpace=wrap;html=1;align=center;fillColor=#fff2cc;strokeColor=#d6b656;" parent="1" vertex="1">
          <mxGeometry x="270" y="280" width="100" height="40" as="geometry" />
        </mxCell>
        <mxCell id="PjssF5-x1hBXrWL6VNME-8" value="Autor" style="ellipse;whiteSpace=wrap;html=1;align=center;fillColor=#fff2cc;strokeColor=#d6b656;" parent="1" vertex="1">
          <mxGeometry x="270" y="450" width="100" height="40" as="geometry" />
        </mxCell>
        <mxCell id="PjssF5-x1hBXrWL6VNME-9" value="LlaveInterna" style="ellipse;whiteSpace=wrap;html=1;align=center;fontStyle=4;fillColor=#fff2cc;strokeColor=#d6b656;" parent="1" vertex="1">
          <mxGeometry x="20" y="320" width="100" height="40" as="geometry" />
        </mxCell>
        <mxCell id="PjssF5-x1hBXrWL6VNME-10" value="Editorial" style="ellipse;whiteSpace=wrap;html=1;align=center;fillColor=#fff2cc;strokeColor=#d6b656;" parent="1" vertex="1">
          <mxGeometry x="190" y="220" width="100" height="40" as="geometry" />
        </mxCell>
        <mxCell id="PjssF5-x1hBXrWL6VNME-12" value="" style="endArrow=none;html=1;rounded=0;exitX=1;exitY=0.5;exitDx=0;exitDy=0;entryX=-0.016;entryY=0.32;entryDx=0;entryDy=0;entryPerimeter=0;" parent="1" source="PjssF5-x1hBXrWL6VNME-9" target="PjssF5-x1hBXrWL6VNME-2" edge="1">
          <mxGeometry relative="1" as="geometry">
            <mxPoint x="160" y="380" as="sourcePoint" />
            <mxPoint x="190" y="380" as="targetPoint" />
          </mxGeometry>
        </mxCell>
        <mxCell id="PjssF5-x1hBXrWL6VNME-13" value="" style="endArrow=none;html=1;rounded=0;exitX=0.5;exitY=0;exitDx=0;exitDy=0;entryX=0.25;entryY=1;entryDx=0;entryDy=0;" parent="1" target="PjssF5-x1hBXrWL6VNME-2" edge="1">
          <mxGeometry relative="1" as="geometry">
            <mxPoint x="160" y="450" as="sourcePoint" />
            <mxPoint x="310" y="420" as="targetPoint" />
          </mxGeometry>
        </mxCell>
        <mxCell id="PjssF5-x1hBXrWL6VNME-14" value="" style="endArrow=none;html=1;rounded=0;entryX=0.25;entryY=0;entryDx=0;entryDy=0;" parent="1" target="PjssF5-x1hBXrWL6VNME-2" edge="1">
          <mxGeometry relative="1" as="geometry">
            <mxPoint x="150" y="320" as="sourcePoint" />
            <mxPoint x="310" y="320" as="targetPoint" />
          </mxGeometry>
        </mxCell>
        <mxCell id="PjssF5-x1hBXrWL6VNME-15" value="" style="endArrow=none;html=1;rounded=0;entryX=0.5;entryY=0;entryDx=0;entryDy=0;" parent="1" target="PjssF5-x1hBXrWL6VNME-2" edge="1">
          <mxGeometry relative="1" as="geometry">
            <mxPoint x="240" y="260" as="sourcePoint" />
            <mxPoint x="400" y="260" as="targetPoint" />
          </mxGeometry>
        </mxCell>
        <mxCell id="PjssF5-x1hBXrWL6VNME-16" value="" style="endArrow=none;html=1;rounded=0;entryX=0.5;entryY=1;entryDx=0;entryDy=0;exitX=0.75;exitY=0;exitDx=0;exitDy=0;" parent="1" source="PjssF5-x1hBXrWL6VNME-2" target="PjssF5-x1hBXrWL6VNME-6" edge="1">
          <mxGeometry relative="1" as="geometry">
            <mxPoint x="220" y="330" as="sourcePoint" />
            <mxPoint x="380" y="330" as="targetPoint" />
          </mxGeometry>
        </mxCell>
        <mxCell id="PjssF5-x1hBXrWL6VNME-17" value="" style="endArrow=none;html=1;rounded=0;entryX=0.5;entryY=0;entryDx=0;entryDy=0;exitX=0.75;exitY=1;exitDx=0;exitDy=0;" parent="1" source="PjssF5-x1hBXrWL6VNME-2" target="PjssF5-x1hBXrWL6VNME-8" edge="1">
          <mxGeometry relative="1" as="geometry">
            <mxPoint x="200" y="410" as="sourcePoint" />
            <mxPoint x="360" y="410" as="targetPoint" />
          </mxGeometry>
        </mxCell>
        <mxCell id="PjssF5-x1hBXrWL6VNME-18" value="LlaveInterna" style="ellipse;whiteSpace=wrap;html=1;align=center;fontStyle=4;fillColor=#fff2cc;strokeColor=#d6b656;" parent="1" vertex="1">
          <mxGeometry x="950" y="360" width="100" height="40" as="geometry" />
        </mxCell>
        <mxCell id="PjssF5-x1hBXrWL6VNME-19" value="Correo" style="ellipse;whiteSpace=wrap;html=1;align=center;fillColor=#fff2cc;strokeColor=#d6b656;" parent="1" vertex="1">
          <mxGeometry x="670" y="280" width="100" height="40" as="geometry" />
        </mxCell>
        <mxCell id="PjssF5-x1hBXrWL6VNME-20" value="Nombre" style="ellipse;whiteSpace=wrap;html=1;align=center;fillColor=#fff2cc;strokeColor=#d6b656;" parent="1" vertex="1">
          <mxGeometry x="760" y="235" width="100" height="40" as="geometry" />
        </mxCell>
        <mxCell id="PjssF5-x1hBXrWL6VNME-21" value="Apellido" style="ellipse;whiteSpace=wrap;html=1;align=center;fillColor=#fff2cc;strokeColor=#d6b656;" parent="1" vertex="1">
          <mxGeometry x="860" y="280" width="100" height="40" as="geometry" />
        </mxCell>
        <mxCell id="PjssF5-x1hBXrWL6VNME-22" value="La bitácora se realiza como un trigger a la base de datos, entonces no se representa como una entidad como tal aquí" style="text;html=1;align=center;verticalAlign=middle;whiteSpace=wrap;rounded=0;" parent="1" vertex="1">
          <mxGeometry x="780" y="110" width="240" height="70" as="geometry" />
        </mxCell>
        <mxCell id="PjssF5-x1hBXrWL6VNME-23" value="" style="endArrow=none;html=1;rounded=0;entryX=0.25;entryY=0;entryDx=0;entryDy=0;exitX=0.5;exitY=1;exitDx=0;exitDy=0;" parent="1" source="PjssF5-x1hBXrWL6VNME-19" target="PjssF5-x1hBXrWL6VNME-3" edge="1">
          <mxGeometry relative="1" as="geometry">
            <mxPoint x="620" y="320" as="sourcePoint" />
            <mxPoint x="780" y="320" as="targetPoint" />
          </mxGeometry>
        </mxCell>
        <mxCell id="PjssF5-x1hBXrWL6VNME-24" value="" style="endArrow=none;html=1;rounded=0;entryX=0.5;entryY=0;entryDx=0;entryDy=0;exitX=0.5;exitY=1;exitDx=0;exitDy=0;" parent="1" source="PjssF5-x1hBXrWL6VNME-20" target="PjssF5-x1hBXrWL6VNME-3" edge="1">
          <mxGeometry relative="1" as="geometry">
            <mxPoint x="710" y="270" as="sourcePoint" />
            <mxPoint x="870" y="270" as="targetPoint" />
          </mxGeometry>
        </mxCell>
        <mxCell id="PjssF5-x1hBXrWL6VNME-25" value="" style="endArrow=none;html=1;rounded=0;entryX=0.5;entryY=1;entryDx=0;entryDy=0;exitX=0.75;exitY=0;exitDx=0;exitDy=0;" parent="1" source="PjssF5-x1hBXrWL6VNME-3" target="PjssF5-x1hBXrWL6VNME-21" edge="1">
          <mxGeometry relative="1" as="geometry">
            <mxPoint x="750" y="360" as="sourcePoint" />
            <mxPoint x="910" y="360" as="targetPoint" />
          </mxGeometry>
        </mxCell>
        <mxCell id="PjssF5-x1hBXrWL6VNME-26" value="" style="endArrow=none;html=1;rounded=0;entryX=0;entryY=0.5;entryDx=0;entryDy=0;" parent="1" source="PjssF5-x1hBXrWL6VNME-3" target="PjssF5-x1hBXrWL6VNME-18" edge="1">
          <mxGeometry relative="1" as="geometry">
            <mxPoint x="780" y="380" as="sourcePoint" />
            <mxPoint x="860" y="380" as="targetPoint" />
          </mxGeometry>
        </mxCell>
        <mxCell id="PjssF5-x1hBXrWL6VNME-27" value="El correo debe ser único aunque no sea la llave" style="text;html=1;align=center;verticalAlign=middle;whiteSpace=wrap;rounded=0;" parent="1" vertex="1">
          <mxGeometry x="650" y="230" width="100" height="30" as="geometry" />
        </mxCell>
        <mxCell id="PjssF5-x1hBXrWL6VNME-28" value="Se usan llaves internas para ambas entidades por escalabilidad a futuro, si se agregaran o quitaran atributos, que no se afecte a la llave primaria" style="text;html=1;align=center;verticalAlign=middle;whiteSpace=wrap;rounded=0;" parent="1" vertex="1">
          <mxGeometry x="890" y="440" width="160" height="90" as="geometry" />
        </mxCell>
        <mxCell id="PjssF5-x1hBXrWL6VNME-29" value="El ISBN debe ser único aunque no sea la llave" style="text;html=1;align=center;verticalAlign=middle;whiteSpace=wrap;rounded=0;" parent="1" vertex="1">
          <mxGeometry x="20" y="240" width="100" height="30" as="geometry" />
        </mxCell>
        <mxCell id="PjssF5-x1hBXrWL6VNME-30" value="Temática" style="ellipse;shape=doubleEllipse;margin=3;whiteSpace=wrap;html=1;align=center;fillColor=#fff2cc;strokeColor=#d6b656;" parent="1" vertex="1">
          <mxGeometry x="110" y="450" width="100" height="40" as="geometry" />
        </mxCell>
        <mxCell id="PjssF5-x1hBXrWL6VNME-31" value="Un libro puede tener varias temáticas" style="text;html=1;align=center;verticalAlign=middle;whiteSpace=wrap;rounded=0;" parent="1" vertex="1">
          <mxGeometry x="100" y="590" width="110" height="40" as="geometry" />
        </mxCell>
        <mxCell id="PjssF5-x1hBXrWL6VNME-32" value="El título no es único porque un mismo libro puede ser publicado por diferentes editoriales" style="text;html=1;align=center;verticalAlign=middle;whiteSpace=wrap;rounded=0;" parent="1" vertex="1">
          <mxGeometry x="240" y="170" width="200" height="30" as="geometry" />
        </mxCell>
        <mxCell id="PjssF5-x1hBXrWL6VNME-33" value="" style="shape=link;html=1;rounded=0;entryX=0;entryY=0.5;entryDx=0;entryDy=0;" parent="1" source="PjssF5-x1hBXrWL6VNME-36" target="PjssF5-x1hBXrWL6VNME-3" edge="1">
          <mxGeometry relative="1" as="geometry">
            <mxPoint x="290" y="379.5" as="sourcePoint" />
            <mxPoint x="450" y="379.5" as="targetPoint" />
          </mxGeometry>
        </mxCell>
        <mxCell id="PjssF5-x1hBXrWL6VNME-35" value="1" style="resizable=0;html=1;whiteSpace=wrap;align=right;verticalAlign=bottom;" parent="PjssF5-x1hBXrWL6VNME-33" connectable="0" vertex="1">
          <mxGeometry x="1" relative="1" as="geometry">
            <mxPoint x="-10" as="offset" />
          </mxGeometry>
        </mxCell>
        <mxCell id="PjssF5-x1hBXrWL6VNME-37" value="Usuario está asociado con 1 o varios libros (max 3). Libro está asociado a lo más con un Usuario" style="text;html=1;align=center;verticalAlign=middle;whiteSpace=wrap;rounded=0;" parent="1" vertex="1">
          <mxGeometry x="450" y="510" width="200" height="95" as="geometry" />
        </mxCell>
        <mxCell id="PjssF5-x1hBXrWL6VNME-38" value="Fecha de préstamo" style="ellipse;whiteSpace=wrap;html=1;align=center;fillColor=#fff2cc;strokeColor=#d6b656;" parent="1" vertex="1">
          <mxGeometry x="400" y="280" width="100" height="40" as="geometry" />
        </mxCell>
        <mxCell id="PjssF5-x1hBXrWL6VNME-39" value="Fecha de devolución previasta" style="ellipse;whiteSpace=wrap;html=1;align=center;fillColor=#fff2cc;strokeColor=#d6b656;" parent="1" vertex="1">
          <mxGeometry x="550" y="450" width="110" height="50" as="geometry" />
        </mxCell>
        <mxCell id="PjssF5-x1hBXrWL6VNME-40" value="Fecha de devolución real" style="ellipse;whiteSpace=wrap;html=1;align=center;fillColor=#fff2cc;strokeColor=#d6b656;" parent="1" vertex="1">
          <mxGeometry x="540" y="280" width="100" height="40" as="geometry" />
        </mxCell>
        <mxCell id="PjssF5-x1hBXrWL6VNME-41" value="Cantidad de libros prestados" style="ellipse;whiteSpace=wrap;html=1;align=center;fillColor=#fff2cc;strokeColor=#d6b656;" parent="1" vertex="1">
          <mxGeometry x="410" y="450" width="110" height="50" as="geometry" />
        </mxCell>
        <mxCell id="PjssF5-x1hBXrWL6VNME-42" value="" style="endArrow=none;html=1;rounded=0;entryX=0;entryY=0.5;entryDx=0;entryDy=0;" parent="1" target="PjssF5-x1hBXrWL6VNME-3" edge="1">
          <mxGeometry relative="1" as="geometry">
            <mxPoint x="780" y="380" as="sourcePoint" />
            <mxPoint x="950" y="380" as="targetPoint" />
          </mxGeometry>
        </mxCell>
        <mxCell id="PjssF5-x1hBXrWL6VNME-3" value="Usuario" style="whiteSpace=wrap;html=1;align=center;fillColor=#ffe6cc;strokeColor=#d79b00;" parent="1" vertex="1">
          <mxGeometry x="760" y="360" width="100" height="40" as="geometry" />
        </mxCell>
        <mxCell id="PjssF5-x1hBXrWL6VNME-43" value="" style="shape=link;html=1;rounded=0;entryX=0;entryY=0.5;entryDx=0;entryDy=0;" parent="1" target="PjssF5-x1hBXrWL6VNME-36" edge="1">
          <mxGeometry relative="1" as="geometry">
            <mxPoint x="290" y="379.5" as="sourcePoint" />
            <mxPoint x="760" y="380" as="targetPoint" />
          </mxGeometry>
        </mxCell>
        <mxCell id="PjssF5-x1hBXrWL6VNME-44" value="N" style="resizable=0;html=1;whiteSpace=wrap;align=left;verticalAlign=bottom;" parent="PjssF5-x1hBXrWL6VNME-43" connectable="0" vertex="1">
          <mxGeometry x="-1" relative="1" as="geometry">
            <mxPoint x="20" as="offset" />
          </mxGeometry>
        </mxCell>
        <mxCell id="PjssF5-x1hBXrWL6VNME-36" value="Prestamo" style="shape=rhombus;perimeter=rhombusPerimeter;whiteSpace=wrap;html=1;align=center;fillColor=#d5e8d4;strokeColor=#82b366;" parent="1" vertex="1">
          <mxGeometry x="470" y="350" width="120" height="60" as="geometry" />
        </mxCell>
        <mxCell id="PjssF5-x1hBXrWL6VNME-46" value="" style="endArrow=none;html=1;rounded=0;entryX=0;entryY=1;entryDx=0;entryDy=0;" parent="1" target="PjssF5-x1hBXrWL6VNME-36" edge="1">
          <mxGeometry relative="1" as="geometry">
            <mxPoint x="470" y="450" as="sourcePoint" />
            <mxPoint x="630" y="450" as="targetPoint" />
          </mxGeometry>
        </mxCell>
        <mxCell id="PjssF5-x1hBXrWL6VNME-47" value="" style="endArrow=none;html=1;rounded=0;exitX=1;exitY=1;exitDx=0;exitDy=0;entryX=0.5;entryY=0;entryDx=0;entryDy=0;" parent="1" source="PjssF5-x1hBXrWL6VNME-36" target="PjssF5-x1hBXrWL6VNME-39" edge="1">
          <mxGeometry relative="1" as="geometry">
            <mxPoint x="570" y="420" as="sourcePoint" />
            <mxPoint x="730" y="420" as="targetPoint" />
          </mxGeometry>
        </mxCell>
        <mxCell id="PjssF5-x1hBXrWL6VNME-48" value="" style="endArrow=none;html=1;rounded=0;exitX=0.5;exitY=1;exitDx=0;exitDy=0;entryX=0;entryY=0;entryDx=0;entryDy=0;" parent="1" source="PjssF5-x1hBXrWL6VNME-38" target="PjssF5-x1hBXrWL6VNME-36" edge="1">
          <mxGeometry relative="1" as="geometry">
            <mxPoint x="460" y="340" as="sourcePoint" />
            <mxPoint x="620" y="340" as="targetPoint" />
          </mxGeometry>
        </mxCell>
        <mxCell id="PjssF5-x1hBXrWL6VNME-49" value="" style="endArrow=none;html=1;rounded=0;exitX=1;exitY=0;exitDx=0;exitDy=0;entryX=0.5;entryY=1;entryDx=0;entryDy=0;" parent="1" source="PjssF5-x1hBXrWL6VNME-36" target="PjssF5-x1hBXrWL6VNME-40" edge="1">
          <mxGeometry relative="1" as="geometry">
            <mxPoint x="560" y="360" as="sourcePoint" />
            <mxPoint x="720" y="360" as="targetPoint" />
          </mxGeometry>
        </mxCell>
        <mxCell id="RScIIF1qToJbIG2Ns0lb-1" value="Año" style="ellipse;whiteSpace=wrap;html=1;align=center;fillColor=#fff2cc;strokeColor=#d6b656;" parent="1" vertex="1">
          <mxGeometry x="190" y="500" width="100" height="40" as="geometry" />
        </mxCell>
        <mxCell id="RScIIF1qToJbIG2Ns0lb-2" value="" style="endArrow=none;html=1;rounded=0;entryX=0.5;entryY=0;entryDx=0;entryDy=0;" parent="1" edge="1">
          <mxGeometry relative="1" as="geometry">
            <mxPoint x="239.17000000000002" y="400" as="sourcePoint" />
            <mxPoint x="239.17000000000002" y="500" as="targetPoint" />
          </mxGeometry>
        </mxCell>
        <mxCell id="RScIIF1qToJbIG2Ns0lb-3" value="Estado" style="ellipse;whiteSpace=wrap;html=1;align=center;fillColor=#fff2cc;strokeColor=#d6b656;" parent="1" vertex="1">
          <mxGeometry x="20" y="385" width="100" height="40" as="geometry" />
        </mxCell>
        <mxCell id="RScIIF1qToJbIG2Ns0lb-4" value="" style="endArrow=none;html=1;rounded=0;entryX=1;entryY=0.5;entryDx=0;entryDy=0;exitX=0;exitY=0.75;exitDx=0;exitDy=0;" parent="1" source="PjssF5-x1hBXrWL6VNME-2" target="RScIIF1qToJbIG2Ns0lb-3" edge="1">
          <mxGeometry relative="1" as="geometry">
            <mxPoint x="170" y="380" as="sourcePoint" />
            <mxPoint x="170" y="480" as="targetPoint" />
          </mxGeometry>
        </mxCell>
        <mxCell id="RScIIF1qToJbIG2Ns0lb-5" value="Un estado para definir si está disponible o no" style="text;html=1;align=center;verticalAlign=middle;whiteSpace=wrap;rounded=0;" parent="1" vertex="1">
          <mxGeometry x="20" y="470" width="60" height="30" as="geometry" />
        </mxCell>
      </root>
    </mxGraphModel>
  </diagram>
</mxfile>
